<svg width="16" height="16" viewBox="0 0 16 16" fill="none" xmlns="http://www.w3.org/2000/svg">
<path d="M5.5 9.33333C5.5 9.05719 5.72386 8.83333 6 8.83333H10C10.2761 8.83333 10.5 9.05719 10.5 9.33333C10.5 9.60947 10.2761 9.83333 10 9.83333H6C5.72386 9.83333 5.5 9.60947 5.5 9.33333Z" fill="#171447"/>
<path fill-rule="evenodd" clip-rule="evenodd" d="M6 0.833328C6.27614 0.833328 6.5 1.05719 6.5 1.33333V2.17373C6.94616 2.16666 7.44189 2.16666 7.99263 2.16666H8.00737C8.55811 2.16666 9.05384 2.16666 9.5 2.17373V1.33333C9.5 1.05719 9.72386 0.833328 10 0.833328C10.2761 0.833328 10.5 1.05719 10.5 1.33333V2.20905C11.5079 2.27224 12.2823 2.43556 12.9198 2.89876C13.2453 3.1352 13.5315 3.42139 13.7679 3.74682C14.3025 4.48259 14.4376 5.40058 14.4804 6.64954C14.5 7.22102 14.5 7.88594 14.5 8.65932V8.67401C14.5 9.44739 14.5 10.1123 14.4804 10.6838C14.4376 11.9327 14.3025 12.8507 13.7679 13.5865C13.5315 13.9119 13.2453 14.1981 12.9198 14.4346C12.1841 14.9691 11.2661 15.1043 10.0171 15.1471C9.44561 15.1667 8.78064 15.1667 8.00719 15.1667H7.96982C6.74547 15.1667 5.78574 15.1667 5.02432 15.0842C4.24729 15 3.61771 14.8251 3.08016 14.4346C2.75473 14.1981 2.46854 13.9119 2.2321 13.5865C1.84155 13.049 1.66667 12.4194 1.58249 11.6423C1.49999 10.8809 1.49999 9.92119 1.5 8.69683L1.5 8.65928C1.5 7.88592 1.5 7.22101 1.51958 6.64954C1.56237 5.40058 1.69753 4.48259 2.2321 3.74682C2.46854 3.42139 2.75473 3.1352 3.08016 2.89876C3.7177 2.43556 4.49206 2.27224 5.5 2.20905V1.33333C5.5 1.05719 5.72386 0.833328 6 0.833328ZM5.5 3.2115C4.59197 3.27394 4.06785 3.41723 3.66794 3.70778C3.42741 3.88254 3.21588 4.09407 3.04112 4.3346C2.75057 4.73451 2.60728 5.25863 2.54483 6.16666H13.4552C13.3927 5.25863 13.2494 4.73451 12.9589 4.3346C12.7841 4.09407 12.5726 3.88254 12.3321 3.70778C11.9322 3.41723 11.408 3.27394 10.5 3.2115V3.33333C10.5 3.60947 10.2761 3.83333 10 3.83333C9.72386 3.83333 9.5 3.60947 9.5 3.33333V3.17385C9.06028 3.16669 8.56504 3.16666 8 3.16666C7.43496 3.16666 6.93972 3.16669 6.5 3.17385V3.33333C6.5 3.60947 6.27614 3.83333 6 3.83333C5.72386 3.83333 5.5 3.60947 5.5 3.33333V3.2115ZM13.4928 7.16666H2.50719C2.50003 7.60639 2.5 8.10162 2.5 8.66666C2.5 9.92771 2.50069 10.8333 2.57667 11.5346C2.65163 12.2266 2.79506 12.6601 3.04112 12.9987C3.21588 13.2393 3.42741 13.4508 3.66794 13.6255C4.00661 13.8716 4.44009 14.015 5.13203 14.09C5.83333 14.166 6.73895 14.1667 8 14.1667C8.56557 14.1667 9.06119 14.1666 9.50122 14.1594C9.50413 13.843 9.51398 13.6101 9.5472 13.4003C9.80699 11.7601 11.0934 10.4736 12.7337 10.2139C12.9434 10.1806 13.1764 10.1708 13.4928 10.1679C13.5 9.72785 13.5 9.23223 13.5 8.66666C13.5 8.10162 13.5 7.60639 13.4928 7.16666ZM13.455 11.1685C13.1851 11.1716 13.0268 11.1799 12.8901 11.2015C11.6777 11.3936 10.7269 12.3444 10.5349 13.5568C10.5132 13.6935 10.505 13.8517 10.5019 14.1217C11.4088 14.0592 11.9324 13.9159 12.3321 13.6255C12.5726 13.4508 12.7841 13.2393 12.9589 12.9987C13.2492 12.5991 13.3925 12.0754 13.455 11.1685Z" fill="#171447"/>
</svg>
