<svg width="36" height="36" viewBox="0 0 36 36" fill="none" xmlns="http://www.w3.org/2000/svg">
<rect width="36" height="36" rx="18" fill="#21C17C"/>
<path fill-rule="evenodd" clip-rule="evenodd" d="M18 14.4583C15.8139 14.4583 14.0417 16.2305 14.0417 18.4166C14.0417 20.6028 15.8139 22.375 18 22.375C20.1861 22.375 21.9583 20.6028 21.9583 18.4166C21.9583 16.2305 20.1861 14.4583 18 14.4583ZM15.2917 18.4166C15.2917 16.9209 16.5042 15.7083 18 15.7083C19.4958 15.7083 20.7083 16.9209 20.7083 18.4166C20.7083 19.9124 19.4958 21.125 18 21.125C16.5042 21.125 15.2917 19.9124 15.2917 18.4166Z" fill="white"/>
<path fill-rule="evenodd" clip-rule="evenodd" d="M15.7083 8.20831C14.5577 8.20831 13.625 9.14105 13.625 10.2916V10.4405C13.625 10.8185 13.3185 11.125 12.9405 11.125C10.7872 11.125 9.04166 12.8705 9.04166 15.0238V18.8661C9.04165 20.2023 9.04165 21.2497 9.12121 22.0866C9.20231 22.9395 9.37046 23.6379 9.74776 24.2536C10.1429 24.8984 10.6849 25.4404 11.3297 25.8355C11.9454 26.2128 12.6438 26.381 13.4967 26.4621C14.3336 26.5417 15.381 26.5416 16.7171 26.5416H19.2828C20.6189 26.5416 21.6664 26.5417 22.5032 26.4621C23.3562 26.381 24.0546 26.2128 24.6703 25.8355C25.315 25.4404 25.8571 24.8984 26.2522 24.2536C26.6295 23.6379 26.7977 22.9395 26.8788 22.0866C26.9583 21.2497 26.9583 20.2023 26.9583 18.8662V15.0238C26.9583 12.8705 25.2128 11.125 23.0595 11.125C22.6815 11.125 22.375 10.8185 22.375 10.4405V10.2916C22.375 9.14105 21.4422 8.20831 20.2917 8.20831H15.7083ZM14.875 10.2916C14.875 9.83141 15.2481 9.45831 15.7083 9.45831H20.2917C20.7519 9.45831 21.125 9.83141 21.125 10.2916V10.4405C21.125 11.5089 21.9911 12.375 23.0595 12.375C24.5224 12.375 25.7083 13.5609 25.7083 15.0238V18.8333C25.7083 20.2093 25.7077 21.1975 25.6344 21.9682C25.562 22.7297 25.4231 23.2142 25.1864 23.6005C24.8944 24.077 24.4937 24.4777 24.0172 24.7697C23.6309 25.0065 23.1464 25.1453 22.3849 25.2177C21.6142 25.291 20.626 25.2916 19.25 25.2916H16.75C15.374 25.2916 14.3858 25.291 13.6151 25.2177C12.8536 25.1453 12.3691 25.0065 11.9828 24.7697C11.5063 24.4777 11.1056 24.077 10.8136 23.6005C10.5768 23.2142 10.438 22.7297 10.3656 21.9682C10.2923 21.1975 10.2917 20.2093 10.2917 18.8333V15.0238C10.2917 13.5609 11.4776 12.375 12.9405 12.375C14.0089 12.375 14.875 11.5089 14.875 10.4405V10.2916Z" fill="white"/>
<path d="M22.1667 15.0833C22.1667 15.5435 22.5398 15.9166 23 15.9166C23.4602 15.9166 23.8333 15.5435 23.8333 15.0833C23.8333 14.6231 23.4602 14.25 23 14.25C22.5398 14.25 22.1667 14.6231 22.1667 15.0833Z" fill="white"/>
</svg>
