<svg width="24" height="24" viewBox="0 0 24 24" fill="none" xmlns="http://www.w3.org/2000/svg">
<path d="M3.5 9.5C3.5 6.18629 6.18629 3.5 9.5 3.5H14.5C17.8137 3.5 20.5 6.18629 20.5 9.5V14.5C20.5 17.8137 17.8137 20.5 14.5 20.5H9.5C6.18629 20.5 3.5 17.8137 3.5 14.5V9.5Z" fill="white"/>
<path fill-rule="evenodd" clip-rule="evenodd" d="M5.2 3.5H18.8C19.7389 3.5 20.5 4.26112 20.5 5.2V18.8C20.5 19.7389 19.7389 20.5 18.8 20.5H5.2C4.26112 20.5 3.5 19.7389 3.5 18.8V5.2C3.5 4.26112 4.26112 3.5 5.2 3.5ZM6.69104 12.3792L10.3928 16.0835C10.4996 16.1894 10.644 16.2488 10.7944 16.2488C10.9449 16.2488 11.0892 16.1894 11.196 16.0835L17.7546 9.52996C17.8614 9.42303 17.9213 9.27813 17.9213 9.12706C17.9213 8.97599 17.8614 8.83109 17.7546 8.72416L16.9488 7.91836C16.8419 7.81164 16.697 7.75171 16.5459 7.75171C16.3949 7.75171 16.25 7.81164 16.143 7.91836L10.7982 13.2632L8.30264 10.7676C8.24975 10.7146 8.18694 10.6726 8.11781 10.644C8.04868 10.6153 7.97457 10.6006 7.89974 10.6006C7.8249 10.6006 7.7508 10.6153 7.68167 10.644C7.61253 10.6726 7.54973 10.7146 7.49684 10.7676L6.69104 11.5734C6.58432 11.6803 6.52438 11.8252 6.52438 11.9763C6.52438 12.1273 6.58432 12.2722 6.69104 12.3792Z" fill="#5798E4"/>
</svg>
