<svg width="16" height="16" viewBox="0 0 16 16" fill="none" xmlns="http://www.w3.org/2000/svg">
<path fill-rule="evenodd" clip-rule="evenodd" d="M7.99987 2.33367C4.87002 2.33367 2.33321 4.87048 2.33321 8.00033C2.33321 11.1302 4.87002 13.667 7.99987 13.667C11.1297 13.667 13.6665 11.1302 13.6665 8.00033C13.6665 4.87048 11.1297 2.33367 7.99987 2.33367ZM1.33321 8.00033C1.33321 4.31819 4.31773 1.33367 7.99987 1.33367C11.682 1.33367 14.6665 4.31819 14.6665 8.00033C14.6665 11.6825 11.682 14.667 7.99987 14.667C4.31773 14.667 1.33321 11.6825 1.33321 8.00033Z" fill="#171447"/>
<path fill-rule="evenodd" clip-rule="evenodd" d="M7.77428 4.73127C8.05042 4.73127 8.27428 4.95512 8.27428 5.23127V8.17867L10.5438 9.53253C10.7809 9.67401 10.8585 9.98094 10.717 10.2181C10.5755 10.4552 10.2686 10.5328 10.0315 10.3913L7.51812 8.892C7.3669 8.80179 7.27428 8.63868 7.27428 8.4626V5.23127C7.27428 4.95512 7.49813 4.73127 7.77428 4.73127Z" fill="#171447"/>
</svg>
